<svg xmlns="http://www.w3.org/2000/svg" xmlns:xlink="http://www.w3.org/1999/xlink" width="700" zoomAndPan="magnify" viewBox="0 0 525 225" height="300" preserveAspectRatio="xMidYMid meet" version="1.0"><metadata/><defs><g/><clipPath id="ba02707967"><path d="M 179 12.226562 L 344 12.226562 L 344 178 L 179 178 Z M 179 12.226562 " clip-rule="nonzero"/></clipPath><clipPath id="7a140b6f96"><path d="M 226 64 L 293.574219 64 L 293.574219 132.714844 L 226 132.714844 Z M 226 64 " clip-rule="nonzero"/></clipPath><clipPath id="836fd0a156"><path d="M 220.074219 66 L 244 66 L 244 81 L 220.074219 81 Z M 220.074219 66 " clip-rule="nonzero"/></clipPath><clipPath id="bdd67405a8"><rect x="0" width="500" y="0" height="91"/></clipPath></defs><g clip-path="url(#ba02707967)"><path fill="#ff751f" d="M 261.054688 12.371094 C 268.335938 12.367188 275.484375 13.328125 282.503906 15.253906 C 289.523438 17.179688 296.164062 20 302.421875 23.71875 C 308.511719 27.328125 314.054688 31.640625 319.042969 36.660156 C 324.035156 41.683594 328.316406 47.25 331.886719 53.359375 C 333.730469 56.511719 335.355469 59.773438 336.769531 63.140625 C 338.179688 66.507812 339.363281 69.957031 340.316406 73.480469 C 341.273438 77.003906 341.988281 80.578125 342.472656 84.195312 C 342.953125 87.816406 343.195312 91.453125 343.195312 95.105469 C 343.195312 98.753906 342.953125 102.390625 342.472656 106.011719 C 341.988281 109.632812 341.273438 113.203125 340.316406 116.726562 C 339.363281 120.253906 338.179688 123.699219 336.769531 127.066406 C 335.355469 130.433594 333.730469 133.695312 331.886719 136.847656 C 328.316406 142.96875 324.035156 148.550781 319.054688 153.589844 C 314.046875 158.589844 308.511719 162.914062 302.445312 166.554688 C 296.292969 170.257812 289.765625 173.085938 282.859375 175.039062 C 275.722656 176.976562 268.453125 177.949219 261.054688 177.949219 C 253.660156 177.949219 246.390625 176.976562 239.25 175.039062 C 232.351562 173.121094 225.824219 170.328125 219.667969 166.667969 C 213.609375 163.039062 208.09375 158.71875 203.125 153.699219 C 198.09375 148.644531 193.792969 143.027344 190.226562 136.847656 C 186.628906 130.621094 183.878906 124.039062 181.964844 117.109375 C 179.996094 109.917969 179.011719 102.59375 179.011719 95.136719 C 179.011719 87.679688 179.996094 80.359375 181.964844 73.167969 C 183.878906 66.214844 186.632812 59.613281 190.226562 53.359375 C 193.820312 47.269531 198.109375 41.714844 203.09375 36.695312 C 208.074219 31.679688 213.601562 27.351562 219.667969 23.71875 C 225.929688 20 232.574219 17.175781 239.597656 15.25 C 246.621094 13.324219 253.773438 12.367188 261.054688 12.371094 Z M 261.054688 167.488281 C 267.53125 167.523438 273.886719 166.679688 280.128906 164.957031 C 286.167969 163.230469 291.894531 160.78125 297.316406 157.609375 C 301.324219 155.238281 305.070312 152.503906 308.550781 149.40625 C 312.03125 146.3125 315.183594 142.910156 318.007812 139.207031 C 320.832031 135.5 323.273438 131.5625 325.335938 127.382812 C 327.398438 123.207031 329.042969 118.871094 330.265625 114.378906 C 331.984375 108.066406 332.839844 101.644531 332.839844 95.105469 C 332.839844 88.566406 331.984375 82.140625 330.265625 75.832031 C 328.605469 69.808594 326.214844 64.09375 323.089844 58.683594 C 319.960938 53.273438 316.203125 48.347656 311.816406 43.902344 C 307.445312 39.46875 302.574219 35.675781 297.207031 32.523438 C 291.839844 29.371094 286.152344 26.96875 280.152344 25.316406 C 273.902344 23.585938 267.539062 22.71875 261.054688 22.71875 C 254.574219 22.71875 248.207031 23.585938 241.960938 25.316406 C 235.96875 26.992188 230.289062 29.402344 224.921875 32.550781 C 219.554688 35.703125 214.679688 39.484375 210.296875 43.902344 C 205.949219 48.328125 202.210938 53.21875 199.085938 58.578125 C 195.917969 64.011719 193.503906 69.765625 191.847656 75.832031 C 190.570312 80.496094 189.765625 85.238281 189.433594 90.0625 C 189.097656 94.886719 189.242188 99.695312 189.863281 104.488281 C 190.484375 109.285156 191.570312 113.972656 193.125 118.550781 C 194.675781 123.128906 196.664062 127.511719 199.085938 131.695312 C 202.21875 137.03125 205.957031 141.902344 210.296875 146.304688 C 214.648438 150.710938 219.496094 154.480469 224.839844 157.609375 C 230.234375 160.792969 235.9375 163.242188 241.960938 164.957031 C 248.210938 166.679688 254.574219 167.523438 261.054688 167.488281 Z M 261.054688 167.488281 " fill-opacity="1" fill-rule="nonzero"/></g><g clip-path="url(#7a140b6f96)"><path fill="#f4900c" d="M 226.386719 98.613281 C 226.386719 80.019531 241.425781 64.941406 259.976562 64.941406 C 278.53125 64.941406 293.570312 80.015625 293.570312 98.613281 C 293.570312 117.210938 278.53125 132.285156 259.976562 132.285156 C 241.425781 132.285156 226.386719 117.210938 226.386719 98.613281 Z M 226.386719 98.613281 " fill-opacity="1" fill-rule="nonzero"/></g><g clip-path="url(#836fd0a156)"><path fill="#662113" d="M 243.515625 74.300781 C 242.972656 73.753906 241.894531 73.898438 240.757812 74.542969 C 234.039062 68.96875 223.140625 67.09375 222.648438 67.011719 C 221.535156 66.828125 220.492188 67.574219 220.304688 68.6875 C 220.121094 69.796875 220.867188 70.847656 221.976562 71.035156 C 222.085938 71.054688 232.023438 72.777344 237.902344 77.484375 C 237.339844 78.554688 237.242188 79.554688 237.757812 80.070312 C 238.550781 80.867188 240.484375 80.222656 242.078125 78.628906 C 243.667969 77.035156 244.308594 75.097656 243.515625 74.300781 Z M 243.515625 74.300781 " fill-opacity="1" fill-rule="nonzero"/></g><path fill="#5c913b" d="M 263.03125 60.863281 C 263.03125 60.863281 256.710938 69.671875 248.738281 71.621094 C 242.671875 73.105469 234.613281 73.25 233.808594 71.371094 C 233.007812 69.496094 237.007812 63.335938 243.925781 60.367188 C 250.839844 57.398438 263.03125 60.863281 263.03125 60.863281 Z M 263.03125 60.863281 " fill-opacity="1" fill-rule="nonzero"/><g transform="matrix(1, 0, 0, 1, 17, 87)"><g clip-path="url(#bdd67405a8)"><g fill="#000000" fill-opacity="1"><g transform="translate(0.110355, 71.942821)"><g><path d="M 52.015625 -10.0625 L 31.4375 -59.421875 C 30.96875 -60.609375 29.988281 -61.203125 28.5 -61.203125 L 25.203125 -61.203125 C 24.609375 -61.203125 24.03125 -61.019531 23.46875 -60.65625 C 22.90625 -60.300781 22.535156 -59.890625 22.359375 -59.421875 L 1.6875 -9.984375 C 1.269531 -8.910156 1.238281 -7.972656 1.59375 -7.171875 C 1.957031 -6.367188 2.507812 -5.800781 3.25 -5.46875 C 3.988281 -5.144531 4.742188 -5.101562 5.515625 -5.34375 C 6.296875 -5.582031 6.890625 -6.207031 7.296875 -7.21875 L 14.875 -25.921875 L 38.390625 -25.921875 L 46.40625 -7.296875 C 46.820312 -6.347656 47.429688 -5.738281 48.234375 -5.46875 C 49.035156 -5.207031 49.804688 -5.238281 50.546875 -5.5625 C 51.296875 -5.894531 51.847656 -6.445312 52.203125 -7.21875 C 52.554688 -7.988281 52.492188 -8.9375 52.015625 -10.0625 Z M 35.71875 -31.796875 L 17.546875 -31.796875 L 26.90625 -53.09375 Z M 35.71875 -31.796875 "/></g></g></g><g fill="#000000" fill-opacity="1"><g transform="translate(61.47811, 71.942821)"><g><path d="M 41.421875 -23.609375 L 41.421875 -42.9375 C 41.421875 -44.007812 41.109375 -44.828125 40.484375 -45.390625 C 39.859375 -45.953125 39.128906 -46.234375 38.296875 -46.234375 C 37.472656 -46.234375 36.75 -45.953125 36.125 -45.390625 C 35.5 -44.828125 35.1875 -44.007812 35.1875 -42.9375 L 35.1875 -23.96875 C 35.1875 -20.28125 34.070312 -17.1875 31.84375 -14.6875 C 29.613281 -12.195312 26.691406 -10.953125 23.078125 -10.953125 C 19.273438 -10.953125 16.289062 -12.195312 14.125 -14.6875 C 11.957031 -17.1875 10.875 -20.28125 10.875 -23.96875 L 10.875 -42.9375 C 10.875 -44.007812 10.5625 -44.828125 9.9375 -45.390625 C 9.3125 -45.953125 8.597656 -46.234375 7.796875 -46.234375 C 6.992188 -46.234375 6.28125 -45.953125 5.65625 -45.390625 C 5.03125 -44.828125 4.71875 -44.007812 4.71875 -42.9375 L 4.71875 -23.96875 C 4.71875 -20.34375 5.488281 -17.054688 7.03125 -14.109375 C 8.582031 -11.171875 10.738281 -8.851562 13.5 -7.15625 C 16.257812 -5.46875 19.453125 -4.625 23.078125 -4.625 C 26.929688 -4.625 30.222656 -5.484375 32.953125 -7.203125 C 35.691406 -8.929688 37.785156 -11.234375 39.234375 -14.109375 C 40.691406 -16.992188 41.421875 -20.160156 41.421875 -23.609375 Z M 41.421875 -23.609375 "/></g></g></g><g fill="#000000" fill-opacity="1"><g transform="translate(115.720529, 71.942821)"><g><path d="M 25.296875 -40 C 26.367188 -40 27.1875 -40.304688 27.75 -40.921875 C 28.3125 -41.546875 28.59375 -42.257812 28.59375 -43.0625 C 28.59375 -43.863281 28.3125 -44.578125 27.75 -45.203125 C 27.1875 -45.828125 26.367188 -46.140625 25.296875 -46.140625 C 23.335938 -46.140625 21.242188 -46.003906 19.015625 -45.734375 C 16.785156 -45.472656 14.675781 -44.773438 12.6875 -43.640625 C 10.695312 -42.515625 9.078125 -40.691406 7.828125 -38.171875 C 6.585938 -35.648438 5.96875 -32.101562 5.96875 -27.53125 L 5.96875 -8.546875 C 5.96875 -7.421875 6.28125 -6.585938 6.90625 -6.046875 C 7.53125 -5.515625 8.269531 -5.25 9.125 -5.25 C 9.988281 -5.25 10.734375 -5.515625 11.359375 -6.046875 C 11.984375 -6.585938 12.296875 -7.421875 12.296875 -8.546875 L 12.296875 -27.53125 C 12.296875 -30.613281 12.617188 -33.015625 13.265625 -34.734375 C 13.921875 -36.460938 14.84375 -37.695312 16.03125 -38.4375 C 17.21875 -39.175781 18.597656 -39.617188 20.171875 -39.765625 C 21.742188 -39.921875 23.453125 -40 25.296875 -40 Z M 25.296875 -40 "/></g></g></g><g fill="#000000" fill-opacity="1"><g transform="translate(154.385974, 71.942821)"><g/></g></g><g fill="#000000" fill-opacity="1"><g transform="translate(189.479068, 71.942821)"><g/></g></g><g fill="#000000" fill-opacity="1"><g transform="translate(224.572162, 71.942821)"><g/></g></g><g fill="#000000" fill-opacity="1"><g transform="translate(259.665256, 71.942821)"><g/></g></g><g fill="#000000" fill-opacity="1"><g transform="translate(294.75835, 71.942821)"><g/></g></g><g fill="#000000" fill-opacity="1"><g transform="translate(329.853364, 71.942821)"><g><path d="M 43.734375 -8.1875 L 43.734375 -25.65625 C 43.734375 -29.875 42.78125 -33.492188 40.875 -36.515625 C 38.976562 -39.546875 36.5 -41.878906 33.4375 -43.515625 C 30.382812 -45.148438 27.078125 -45.96875 23.515625 -45.96875 C 19.597656 -45.96875 16.109375 -45.03125 13.046875 -43.15625 C 9.992188 -41.289062 7.578125 -38.828125 5.796875 -35.765625 C 4.015625 -32.703125 3.125 -29.332031 3.125 -25.65625 C 3.125 -21.789062 4.015625 -18.3125 5.796875 -15.21875 C 7.578125 -12.132812 10.007812 -9.703125 13.09375 -7.921875 C 16.175781 -6.140625 19.648438 -5.25 23.515625 -5.25 C 26.128906 -5.25 28.625 -5.679688 31 -6.546875 C 33.375 -7.410156 35.484375 -8.703125 37.328125 -10.421875 L 37.328125 -8.1875 C 37.328125 -5.101562 36.835938 -2.640625 35.859375 -0.796875 C 34.878906 1.035156 33.644531 2.394531 32.15625 3.28125 C 30.675781 4.175781 29.144531 4.757812 27.5625 5.03125 C 25.988281 5.300781 24.640625 5.4375 23.515625 5.4375 C 20.785156 5.4375 18.15625 4.882812 15.625 3.78125 C 13.101562 2.6875 10.863281 1.367188 8.90625 -0.171875 C 7.78125 -1.066406 6.726562 -1.289062 5.75 -0.84375 C 4.769531 -0.394531 4.175781 0.390625 3.96875 1.515625 C 3.757812 2.640625 4.273438 3.796875 5.515625 4.984375 C 7.484375 6.828125 10.128906 8.398438 13.453125 9.703125 C 16.773438 11.015625 20.128906 11.671875 23.515625 11.671875 C 25.648438 11.671875 27.890625 11.414062 30.234375 10.90625 C 32.585938 10.40625 34.785156 9.457031 36.828125 8.0625 C 38.878906 6.664062 40.539062 4.660156 41.8125 2.046875 C 43.09375 -0.566406 43.734375 -3.976562 43.734375 -8.1875 Z M 37.59375 -25.65625 C 37.59375 -22.976562 36.953125 -20.570312 35.671875 -18.4375 C 34.398438 -16.300781 32.691406 -14.609375 30.546875 -13.359375 C 28.410156 -12.109375 26.066406 -11.484375 23.515625 -11.484375 C 20.847656 -11.484375 18.441406 -12.109375 16.296875 -13.359375 C 14.160156 -14.609375 12.453125 -16.300781 11.171875 -18.4375 C 9.898438 -20.570312 9.265625 -22.976562 9.265625 -25.65625 C 9.265625 -28.269531 9.898438 -30.628906 11.171875 -32.734375 C 12.453125 -34.847656 14.160156 -36.539062 16.296875 -37.8125 C 18.441406 -39.09375 20.847656 -39.734375 23.515625 -39.734375 C 26.066406 -39.734375 28.394531 -39.09375 30.5 -37.8125 C 32.613281 -36.539062 34.320312 -34.832031 35.625 -32.6875 C 36.9375 -30.550781 37.59375 -28.207031 37.59375 -25.65625 Z M 37.59375 -25.65625 "/></g></g></g><g fill="#000000" fill-opacity="1"><g transform="translate(387.213119, 71.942821)"><g><path d="M 45.34375 -27.796875 C 45.34375 -29.578125 44.878906 -31.566406 43.953125 -33.765625 C 43.035156 -35.960938 41.703125 -38.054688 39.953125 -40.046875 C 38.203125 -42.035156 36.035156 -43.679688 33.453125 -44.984375 C 30.867188 -46.285156 27.910156 -46.9375 24.578125 -46.9375 C 20.722656 -46.9375 17.234375 -46 14.109375 -44.125 C 10.992188 -42.257812 8.515625 -39.769531 6.671875 -36.65625 C 4.835938 -33.539062 3.921875 -30.050781 3.921875 -26.1875 C 3.921875 -22.382812 4.835938 -18.910156 6.671875 -15.765625 C 8.515625 -12.617188 11.007812 -10.125 14.15625 -8.28125 C 17.3125 -6.4375 20.785156 -5.515625 24.578125 -5.515625 C 29.148438 -5.515625 33.097656 -6.539062 36.421875 -8.59375 C 39.753906 -10.644531 42.160156 -13.003906 43.640625 -15.671875 C 44.242188 -16.742188 44.425781 -17.679688 44.1875 -18.484375 C 43.945312 -19.285156 43.46875 -19.878906 42.75 -20.265625 C 42.039062 -20.648438 41.316406 -20.769531 40.578125 -20.625 C 39.835938 -20.476562 39.226562 -20.015625 38.75 -19.234375 C 37.445312 -16.679688 35.515625 -14.8125 32.953125 -13.625 C 30.398438 -12.4375 27.609375 -11.84375 24.578125 -11.84375 C 21.972656 -11.84375 19.613281 -12.492188 17.5 -13.796875 C 15.394531 -15.109375 13.703125 -16.757812 12.421875 -18.75 C 11.148438 -20.738281 10.394531 -22.710938 10.15625 -24.671875 L 42.140625 -24.671875 C 43.140625 -24.671875 43.921875 -24.984375 44.484375 -25.609375 C 45.054688 -26.234375 45.34375 -26.960938 45.34375 -27.796875 Z M 37.6875 -30.90625 L 11.046875 -30.90625 C 12.054688 -33.820312 13.789062 -36.195312 16.25 -38.03125 C 18.71875 -39.875 21.492188 -40.796875 24.578125 -40.796875 C 27.554688 -40.796875 30.234375 -39.890625 32.609375 -38.078125 C 34.984375 -36.265625 36.675781 -33.875 37.6875 -30.90625 Z M 37.6875 -30.90625 "/></g></g></g><g fill="#000000" fill-opacity="1"><g transform="translate(444.572875, 71.942821)"><g><path d="M 41.515625 -8.546875 L 41.515625 -27.4375 C 41.515625 -31.0625 40.726562 -34.34375 39.15625 -37.28125 C 37.582031 -40.21875 35.410156 -42.546875 32.640625 -44.265625 C 29.878906 -45.992188 26.71875 -46.859375 23.15625 -46.859375 C 19.894531 -46.859375 16.867188 -46.070312 14.078125 -44.5 C 11.285156 -42.925781 9.039062 -40.710938 7.34375 -37.859375 C 5.65625 -35.003906 4.8125 -31.648438 4.8125 -27.796875 L 4.8125 -8.546875 C 4.8125 -7.421875 5.125 -6.578125 5.75 -6.015625 C 6.375 -5.453125 7.085938 -5.171875 7.890625 -5.171875 C 8.691406 -5.171875 9.398438 -5.453125 10.015625 -6.015625 C 10.640625 -6.578125 10.953125 -7.421875 10.953125 -8.546875 L 10.953125 -27.703125 C 10.953125 -31.328125 12.050781 -34.398438 14.25 -36.921875 C 16.445312 -39.441406 19.414062 -40.703125 23.15625 -40.703125 C 25.59375 -40.703125 27.726562 -40.125 29.5625 -38.96875 C 31.40625 -37.8125 32.832031 -36.238281 33.84375 -34.25 C 34.851562 -32.257812 35.359375 -30.019531 35.359375 -27.53125 L 35.359375 -8.546875 C 35.359375 -7.421875 35.671875 -6.578125 36.296875 -6.015625 C 36.921875 -5.453125 37.632812 -5.171875 38.4375 -5.171875 C 39.238281 -5.171875 39.953125 -5.453125 40.578125 -6.015625 C 41.203125 -6.578125 41.515625 -7.421875 41.515625 -8.546875 Z M 41.515625 -8.546875 "/></g></g></g></g></g></svg>